<svg width="230" height="614" viewBox="0 0 230 614" fill="none" xmlns="http://www.w3.org/2000/svg">
<path d="M47.9167 526.243H65.4167V508.743V335.507V318.007H47.9167H23.9583C20.409 318.007 17.5 315.122 17.5 311.522V254.234C17.5 250.635 20.409 247.75 23.9583 247.75H158.125C161.674 247.75 164.583 250.635 164.583 254.234V508.743V526.243H182.083H206.042C209.591 526.243 212.5 529.128 212.5 532.728V590.016C212.5 593.615 209.591 596.5 206.042 596.5H23.9583C20.409 596.5 17.5 593.615 17.5 590.016V532.728C17.5 529.128 20.409 526.243 23.9583 526.243H47.9167ZM46.25 86.3438C46.25 48.3039 77.0477 17.5 115 17.5C152.951 17.5 183.75 48.304 183.75 86.3438C183.75 124.384 152.952 155.188 115 155.188C77.0477 155.188 46.25 124.384 46.25 86.3438Z" stroke="#292128" stroke-width="35"/>
</svg>
