<svg width="230" height="614" viewBox="0 0 230 614" fill="none" xmlns="http://www.w3.org/2000/svg">
<path d="M23.9583 508.743H47.9167V335.507H23.9583C10.7261 335.507 0 324.769 0 311.522V254.234C0 240.988 10.7261 230.25 23.9583 230.25H158.125C171.357 230.25 182.083 240.988 182.083 254.234V508.743H206.042C219.274 508.743 230 519.481 230 532.728V590.016C230 603.262 219.274 614 206.042 614H23.9583C10.7261 614 0 603.262 0 590.016V532.728C0 519.481 10.7261 508.743 23.9583 508.743ZM115 0C67.3648 0 28.75 38.6568 28.75 86.3438C28.75 134.031 67.3648 172.688 115 172.688C162.635 172.688 201.25 134.031 201.25 86.3438C201.25 38.6568 162.634 0 115 0Z" fill="#292128"/>
</svg>
