<svg width="642" height="500" viewBox="0 0 642 500" fill="none" xmlns="http://www.w3.org/2000/svg">
<path d="M604.349 0.0605287C543.27 3.52688 421.87 16.144 346.925 62.0202C341.754 65.1856 338.822 70.8143 338.822 76.6993V482.263C338.822 495.136 352.899 503.273 364.77 497.298C441.877 458.489 553.391 447.9 608.529 445.002C627.354 444.01 641.989 428.919 641.989 410.829V34.2782C642 14.539 624.88 -1.09864 604.349 0.0605287ZM295.064 62.0202C220.13 16.144 98.7298 3.53803 37.6506 0.0605287C17.12 -1.09864 0 14.539 0 34.2782V410.84C0 428.941 14.6345 444.032 33.4598 445.013C88.6205 447.911 200.19 458.511 277.297 497.343C289.134 503.306 303.167 495.181 303.167 482.341V76.4987C303.167 70.6025 300.246 65.1968 295.064 62.0202Z" fill="#292128"/>
</svg>
