<svg width="642" height="500" viewBox="0 0 642 500" fill="none" xmlns="http://www.w3.org/2000/svg">
<path d="M356.902 481.995C356.758 482.068 356.658 482.096 356.599 482.108C356.537 482.122 356.483 482.125 356.432 482.123C356.395 482.122 356.358 482.117 356.322 482.11V77.1152C391.162 55.8604 437.763 41.7807 484.217 32.6357C530.51 23.5223 575.269 19.5676 605.341 17.861C616.476 17.235 624.494 25.553 624.489 34.5969V34.6068V411.158C624.489 419.484 617.602 427.328 607.608 427.855C552.454 430.754 437.604 441.376 356.902 481.995ZM356.902 481.995L364.77 497.627L356.902 481.995ZM34.3703 427.866L34.3779 427.866C89.5531 430.765 204.464 441.398 285.169 482.042L285.17 482.043C285.31 482.113 285.404 482.139 285.457 482.15C285.514 482.162 285.562 482.166 285.606 482.164C285.626 482.163 285.647 482.161 285.667 482.158V77.1152C250.833 55.8608 204.235 41.7838 157.782 32.6399C111.495 23.5287 66.7391 19.5738 36.6641 17.8613L34.3703 427.866ZM34.3703 427.866C24.3902 427.346 17.5 419.511 17.5 411.169V34.6068C17.5 25.5536 25.5249 17.2367 36.6559 17.8608L34.3703 427.866ZM356.068 482.002C356.069 482.003 356.07 482.004 356.071 482.005C356.068 482.002 356.067 482.001 356.068 482.002ZM356.061 77.2748L356.062 77.2744L356.061 77.2748Z" stroke="#292128" stroke-width="35"/>
</svg>
