<svg width="627" height="736" viewBox="0 0 627 736" fill="none" xmlns="http://www.w3.org/2000/svg">
<path d="M262.97 678.861L262.892 678.835L262.812 678.815C256.285 677.151 249.473 676.323 242.384 676.323C220.19 676.323 201.178 684.182 185.49 699.844L185.486 699.848C176.569 708.791 170.207 718.873 166.451 730.087C165.146 733.491 164.207 737.065 163.629 740.807C163.086 743.234 162.714 745.83 162.506 748.592C162.144 751.228 161.965 753.945 161.965 756.742C161.965 765.116 163.077 773.138 165.31 780.799L165.313 780.81L165.317 780.822C167.006 786.408 169.34 791.902 172.312 797.303L172.344 797.362L172.38 797.419C174.11 800.199 176.022 802.885 178.113 805.477C176.865 805.753 175.641 806.071 174.439 806.43C144.183 813.101 121.252 827.418 105.875 849.45V598.498H282.652C272.574 624.24 272.027 653.516 280.791 686.198C274.697 683.197 268.756 680.75 262.97 678.861ZM-141.602 678.55L-141.683 678.571L-141.762 678.597C-147.544 680.484 -153.473 682.922 -159.547 685.904C-150.782 653.223 -151.327 623.956 -161.405 598.234H15.3709V849.155C-0.00509644 827.146 -22.9334 812.839 -53.1855 806.168C-54.3929 805.798 -55.6179 805.476 -56.8602 805.199C-54.7756 802.609 -52.877 799.924 -51.1655 797.145L-51.1334 797.093L-51.1038 797.039C-48.1311 791.636 -45.7968 786.129 -44.1082 780.517L-44.1042 780.504C-41.8447 772.842 -40.7193 764.83 -40.7193 756.478C-40.7193 753.681 -40.9111 750.964 -41.2973 748.327C-41.4812 745.566 -41.8537 742.956 -42.4214 740.503C-42.9751 736.784 -43.915 733.221 -45.2443 729.819C-48.9763 718.579 -55.3399 708.496 -64.2828 699.579C-79.9462 683.917 -98.9453 676.058 -121.139 676.058C-128.228 676.058 -135.051 676.887 -141.602 678.55ZM-51.1837 334.298L-51.1889 334.29L-51.194 334.282C-52.8946 331.648 -54.7787 329.066 -56.8446 326.533C-55.6075 326.257 -54.3878 325.936 -53.1854 325.568C-22.933 318.896 -0.00482178 304.579 15.3709 282.55V504.711H-161.405C-151.327 478.989 -150.782 449.723 -159.547 417.041C-153.473 420.023 -147.544 422.461 -141.762 424.348L-141.687 424.373L-141.611 424.393C-135.057 426.083 -128.231 426.924 -121.139 426.924C-98.9434 426.924 -79.9436 419.052 -64.2802 403.364C-55.895 394.978 -49.7164 385.549 -45.7843 375.08L-45.7453 374.977L-45.7157 374.87C-43.4529 366.713 -43.1473 358.775 -44.8541 351.095L-44.8614 351.061L-44.8697 351.029C-46.7017 343.726 -48.7793 338.084 -51.1837 334.298ZM263.649 424.393L263.725 424.373L263.8 424.348C269.583 422.461 275.513 420.022 281.589 417.039C272.844 449.722 273.389 478.989 283.446 504.711H106.705V282.55C122.078 304.579 144.993 318.896 175.223 325.568C176.429 325.937 177.654 326.259 178.9 326.535C176.822 329.066 174.932 331.649 173.232 334.282L173.223 334.295L173.215 334.309C170.84 338.091 168.777 343.728 166.945 351.029L166.938 351.057L166.932 351.086C165.198 358.769 165.49 366.71 167.754 374.87L167.783 374.977L167.822 375.08C171.754 385.548 177.932 394.977 186.317 403.362C201.981 419.052 220.994 426.924 243.214 426.924C250.282 426.924 257.096 426.083 263.649 424.393Z" stroke="#E9DAC2" stroke-width="5"/>
</svg>
