<svg width="140" height="139" viewBox="0 0 140 139" fill="none" xmlns="http://www.w3.org/2000/svg">
<path d="M70.0273 38.2792C52.6367 38.2792 38.6094 52.2063 38.6094 69.4728C38.6094 86.7392 52.6367 100.666 70.0273 100.666C87.418 100.666 101.445 86.7392 101.445 69.4728C101.445 52.2063 87.418 38.2792 70.0273 38.2792ZM70.0273 89.7526C58.7891 89.7526 49.6016 80.6579 49.6016 69.4728C49.6016 58.2876 58.7617 49.1929 70.0273 49.1929C81.293 49.1929 90.4531 58.2876 90.4531 69.4728C90.4531 80.6579 81.2656 89.7526 70.0273 89.7526ZM110.059 37.0032C110.059 41.0483 106.777 44.279 102.73 44.279C98.6563 44.279 95.4023 41.0212 95.4023 37.0032C95.4023 32.9853 98.6836 29.7274 102.73 29.7274C106.777 29.7274 110.059 32.9853 110.059 37.0032ZM130.867 44.3876C130.402 34.6413 128.16 26.0081 120.969 18.8952C113.805 11.7823 105.109 9.55615 95.293 9.06748C85.1758 8.49736 54.8516 8.49736 44.7344 9.06748C34.9453 9.529 26.25 11.7552 19.0586 18.8681C11.8672 25.981 9.65234 34.6142 9.16016 44.3604C8.58594 54.4054 8.58594 84.513 9.16016 94.5579C9.625 104.304 11.8672 112.937 19.0586 120.05C26.25 127.163 34.918 129.389 44.7344 129.878C54.8516 130.448 85.1758 130.448 95.293 129.878C105.109 129.416 113.805 127.19 120.969 120.05C128.133 112.937 130.375 104.304 130.867 94.5579C131.441 84.513 131.441 54.4325 130.867 44.3876ZM117.797 105.336C115.664 110.657 111.535 114.756 106.148 116.901C98.082 120.077 78.9414 119.344 70.0273 119.344C61.1133 119.344 41.9453 120.05 33.9062 116.901C28.5469 114.783 24.418 110.684 22.2578 105.336C19.0586 97.327 19.7969 78.3231 19.7969 69.4728C19.7969 60.6224 19.0859 41.5913 22.2578 33.6097C24.3906 28.2886 28.5195 24.1892 33.9062 22.0444C41.9727 18.8681 61.1133 19.6011 70.0273 19.6011C78.9414 19.6011 98.1094 18.8952 106.148 22.0444C111.508 24.162 115.637 28.2614 117.797 33.6097C120.996 41.6185 120.258 60.6224 120.258 69.4728C120.258 78.3231 120.996 97.3542 117.797 105.336Z" fill="#E9DAC2"/>
</svg>
