<svg width="88" height="88" viewBox="0 0 88 88" fill="none" xmlns="http://www.w3.org/2000/svg">
<path d="M44.0098 21.4379C31.5239 21.4379 21.4528 31.5113 21.4528 44C21.4528 56.4887 31.5239 66.5621 44.0098 66.5621C56.4957 66.5621 66.5669 56.4887 66.5669 44C66.5669 31.5113 56.4957 21.4379 44.0098 21.4379ZM44.0098 58.6683C35.9411 58.6683 29.3448 52.0901 29.3448 44C29.3448 35.9099 35.9215 29.3317 44.0098 29.3317C52.0982 29.3317 58.6748 35.9099 58.6748 44C58.6748 52.0901 52.0785 58.6683 44.0098 58.6683ZM72.7509 20.515C72.7509 23.4408 70.3951 25.7775 67.4896 25.7775C64.5644 25.7775 62.2282 23.4212 62.2282 20.515C62.2282 17.6088 64.5841 15.2525 67.4896 15.2525C70.3951 15.2525 72.7509 17.6088 72.7509 20.515ZM87.6908 25.8561C87.3571 18.8067 85.7472 12.5623 80.584 7.41761C75.4405 2.2729 69.1975 0.662724 62.1497 0.309271C54.8859 -0.10309 33.1141 -0.10309 25.8503 0.309271C18.8221 0.643088 12.5791 2.25326 7.41595 7.39797C2.25276 12.5427 0.662577 18.787 0.309202 25.8364C-0.103067 33.1019 -0.103067 54.8785 0.309202 62.1439C0.642945 69.1933 2.25276 75.4377 7.41595 80.5824C12.5791 85.7271 18.8025 87.3373 25.8503 87.6907C33.1141 88.1031 54.8859 88.1031 62.1497 87.6907C69.1975 87.3569 75.4405 85.7467 80.584 80.5824C85.7276 75.4377 87.3374 69.1933 87.6908 62.1439C88.1031 54.8785 88.1031 33.1215 87.6908 25.8561ZM78.3067 69.9395C76.7755 73.7882 73.811 76.7533 69.9436 78.3046C64.1522 80.602 50.4098 80.0718 44.0098 80.0718C37.6098 80.0718 23.8479 80.5824 18.0761 78.3046C14.2282 76.773 11.2638 73.8079 9.71288 69.9395C7.41595 64.1468 7.94601 50.4014 7.94601 44C7.94601 37.5986 7.43558 23.8335 9.71288 18.0605C11.2442 14.2118 14.2086 11.2467 18.0761 9.69541C23.8675 7.39797 37.6098 7.92815 44.0098 7.92815C50.4098 7.92815 64.1718 7.4176 69.9436 9.69541C73.7914 11.227 76.7558 14.1921 78.3067 18.0605C80.6037 23.8532 80.0736 37.5986 80.0736 44C80.0736 50.4014 80.6037 64.1665 78.3067 69.9395Z" fill="#292128"/>
</svg>
