<svg width="255" height="329" viewBox="0 0 255 329" fill="none" xmlns="http://www.w3.org/2000/svg">
<path d="M229.569 227.988C233.447 227.988 237.163 228.441 240.716 229.347C244.793 230.677 249.025 232.517 253.414 234.867C247.397 214.597 247.702 196.768 254.327 181.38H151.345V328.825C159.697 314.457 173.144 305.235 191.688 301.158C193.005 300.761 194.378 300.457 195.808 300.245L195.956 300.096C194.229 298.157 192.7 296.118 191.37 293.981C189.742 291.022 188.468 288.021 187.548 284.978C186.33 280.802 185.722 276.421 185.722 271.834C185.722 270.306 185.821 268.826 186.019 267.397C186.132 265.868 186.337 264.445 186.635 263.129C186.946 261.09 187.456 259.151 188.164 257.311C190.202 251.21 193.663 245.71 198.547 240.813C207.111 232.263 217.451 227.988 229.569 227.988ZM1.16157 234.697C5.53564 232.362 9.76107 230.529 13.8379 229.198C17.4051 228.292 21.128 227.839 25.0066 227.839C37.1238 227.839 47.4573 232.114 56.0073 240.664C60.9051 245.548 64.3661 251.047 66.3904 257.162C67.1123 259.002 67.6219 260.935 67.9192 262.959C68.2306 264.29 68.4358 265.719 68.5349 267.248C68.7473 268.678 68.8534 270.157 68.8534 271.686C68.8534 276.258 68.2377 280.632 67.0061 284.808C66.086 287.866 64.812 290.874 63.1841 293.832C61.8677 295.97 60.3459 298.008 58.619 299.947L58.7676 300.096C60.1832 300.294 61.5562 300.599 62.8869 301.009C81.4306 305.086 94.8784 314.301 103.23 328.655V181.232H0.248535C6.87334 196.605 7.17768 214.427 1.16157 234.697ZM58.619 28.9039C60.3459 30.8432 61.8677 32.8321 63.1841 34.8705C64.4157 36.8098 65.541 39.8108 66.5602 43.8734C67.4662 47.9502 67.3105 52.1827 66.0931 56.571C63.9556 62.2615 60.5937 67.4 56.0073 71.9864C47.4573 80.5505 37.1238 84.8325 25.0066 84.8325C21.128 84.8325 17.4051 84.3725 13.8379 83.4524C9.76107 82.1217 5.53564 80.2886 1.16157 77.9529C7.17768 98.2237 6.87334 116.046 0.248535 131.418H103.23V0.175232C94.8784 14.5431 81.4306 23.7655 62.8869 27.8423C61.5562 28.2528 60.1832 28.5571 58.7676 28.7553L58.619 28.9039ZM253.859 77.9529C249.485 80.2886 245.26 82.1217 241.183 83.4524C237.616 84.3725 233.9 84.8325 230.036 84.8325C217.904 84.8325 207.564 80.5505 199.014 71.9864C194.427 67.4 191.065 62.2615 188.928 56.571C187.711 52.1827 187.562 47.9502 188.482 43.8734C189.501 39.8108 190.62 36.8098 191.837 34.8705C193.153 32.8321 194.682 30.8432 196.423 28.9039L196.275 28.7553C194.845 28.5571 193.465 28.2528 192.134 27.8423C173.605 23.7655 160.164 14.5431 151.812 0.175232V131.418H254.772C248.162 116.046 247.858 98.2237 253.859 77.9529Z" fill="#292128"/>
</svg>
