<svg width="52" height="52" viewBox="0 0 52 52" fill="none" xmlns="http://www.w3.org/2000/svg">
<path d="M18.4909 36.9979L16.875 35.7345L16.875 37.7857L16.875 39.4412C16.875 39.8296 16.7239 40.1937 16.4569 40.4606L6.33496 50.5826C6.33444 50.5832 6.33391 50.5837 6.33339 50.5842C5.76884 51.1411 4.85652 51.1405 4.29226 50.5762L1.41805 47.702L1.41425 47.6983C0.857241 47.1472 0.85177 46.2395 1.41804 45.6733L11.5438 35.5475C11.8107 35.2806 12.1748 35.1295 12.5633 35.1295L14.2187 35.1295L16.27 35.1295L15.0065 33.5135C12.3364 30.0984 10.75 25.8044 10.75 21.1295C10.75 10.0122 19.7578 1.00445 30.875 1.00445C41.9922 1.00446 51 10.0122 51 21.1295C51 32.2467 41.9922 41.2545 30.875 41.2545C26.2 41.2545 21.906 39.6681 18.4909 36.9979ZM30.875 7.12945C23.1316 7.12945 16.875 13.3972 16.875 21.1295C16.875 28.8729 23.1428 35.1295 30.875 35.1295C38.6184 35.1295 44.875 28.8617 44.875 21.1295C44.875 13.386 38.6072 7.12945 30.875 7.12945Z" stroke="#292128" stroke-width="2"/>
</svg>
