<svg width="621" height="476" viewBox="0 0 621 476" fill="none" xmlns="http://www.w3.org/2000/svg">
<path d="M296.33 232.689C303.865 239.563 316.135 239.563 323.778 232.689L440.997 126.618C475.01 95.7813 473.073 44.6962 434.969 16.2744C401.816 -8.52512 352.41 -4.06679 322.056 23.4263L310 34.2935L298.052 23.5191C267.698 -4.06679 218.292 -8.52512 185.139 16.2744C147.142 44.6962 145.097 95.7813 179.111 126.618L296.33 232.689ZM608.483 304.766C595.781 294.827 575.976 295.477 562.628 304.766L463.17 373.405C451.007 381.858 435.83 386.409 420.115 386.409H292.778C283.306 386.409 275.556 379.721 275.556 371.548C275.556 363.374 283.306 356.687 292.778 356.687H377.059C394.174 356.687 410.104 346.563 412.903 331.98C416.455 313.404 399.878 297.242 378.889 297.242H206.667C177.604 297.242 149.51 305.88 126.906 321.67L76.8542 356.687H17.2222C7.75 356.687 0 363.374 0 371.548V460.714C0 468.888 7.75 475.576 17.2222 475.576H401.278C416.885 475.576 432.062 471.024 444.333 462.572L607.083 350.185C623.444 338.946 624.736 317.398 608.483 304.766Z" fill="#292128"/>
</svg>
