<svg width="656" height="512" viewBox="0 0 656 512" fill="none" xmlns="http://www.w3.org/2000/svg">
<path d="M314.33 250.689C321.865 257.563 334.135 257.563 341.778 250.689L458.997 144.618C493.01 113.781 491.073 62.6962 452.969 34.2744C419.816 9.47488 370.41 13.9332 340.056 41.4263L328 52.2935L316.052 41.5191C285.698 13.9332 236.292 9.47488 203.139 34.2744C165.142 62.6962 163.097 113.781 197.111 144.618L314.33 250.689ZM626.483 322.766C613.781 312.827 593.976 313.477 580.628 322.766L481.17 391.405C469.007 399.858 453.83 404.409 438.115 404.409H310.778C301.306 404.409 293.556 397.721 293.556 389.548C293.556 381.374 301.306 374.687 310.778 374.687H395.059C412.174 374.687 428.104 364.563 430.903 349.98C434.455 331.404 417.878 315.242 396.889 315.242H224.667C195.604 315.242 167.51 323.88 144.906 339.67L94.8542 374.687H35.2222C25.75 374.687 18 381.374 18 389.548V478.714C18 486.888 25.75 493.576 35.2222 493.576H419.278C434.885 493.576 450.062 489.024 462.333 480.572L625.083 368.185C641.444 356.946 642.736 335.398 626.483 322.766Z" stroke="#292128" stroke-width="35"/>
</svg>
